<svg width="36" height="36" viewBox="0 0 36 36" fill="none" xmlns="http://www.w3.org/2000/svg">
<path d="M18.0001 32.6663C26.1003 32.6663 32.6668 26.0999 32.6668 17.9997C32.6668 9.8995 26.1003 3.33301 18.0001 3.33301C9.89993 3.33301 3.33344 9.8995 3.33344 17.9997C3.33344 26.0999 9.89993 32.6663 18.0001 32.6663Z" stroke="#3B82F6" stroke-width="2.2" stroke-linecap="round" stroke-linejoin="round"/>
<path d="M12.1337 4.7998H13.6003C10.7403 13.3651 10.7403 22.6345 13.6003 31.1998H12.1337" stroke="#3B82F6" stroke-width="2.2" stroke-linecap="round" stroke-linejoin="round"/>
<path d="M22.4001 4.7998C25.2601 13.3651 25.2601 22.6345 22.4001 31.1998" stroke="#3B82F6" stroke-width="2.2" stroke-linecap="round" stroke-linejoin="round"/>
<path d="M4.80014 23.8666V22.3999C13.3655 25.2599 22.6348 25.2599 31.2001 22.3999V23.8666" stroke="#3B82F6" stroke-width="2.2" stroke-linecap="round" stroke-linejoin="round"/>
<path d="M4.80014 13.6001C13.3655 10.7401 22.6348 10.7401 31.2001 13.6001" stroke="#3B82F6" stroke-width="2.2" stroke-linecap="round" stroke-linejoin="round"/>
</svg>
