<svg width="34" height="34" viewBox="0 0 34 34" fill="none" xmlns="http://www.w3.org/2000/svg">
<path fill-rule="evenodd" clip-rule="evenodd" d="M0.75 7.52067C0.75 6.77278 1.35628 6.1665 2.10417 6.1665H31.8958C32.6437 6.1665 33.25 6.77278 33.25 7.52067C33.25 8.26856 32.6437 8.87484 31.8958 8.87484H2.10417C1.35628 8.87484 0.75 8.26856 0.75 7.52067ZM0.75 16.9998C0.75 16.252 1.35628 15.6457 2.10417 15.6457H31.8958C32.6437 15.6457 33.25 16.252 33.25 16.9998C33.25 17.7477 32.6437 18.354 31.8958 18.354H2.10417C1.35628 18.354 0.75 17.7477 0.75 16.9998ZM15.6458 26.479C15.6458 25.7311 16.2521 25.1248 17 25.1248H31.8958C32.6437 25.1248 33.25 25.7311 33.25 26.479C33.25 27.2269 32.6437 27.8332 31.8958 27.8332H17C16.2521 27.8332 15.6458 27.2269 15.6458 26.479Z" fill="#474747"/>
</svg>
