<svg width="146" height="26" viewBox="0 0 146 26" fill="none" xmlns="http://www.w3.org/2000/svg">
<path fill-rule="evenodd" clip-rule="evenodd" d="M10.3269 25.5326L1.73621 23.2307L2.99364 18.5379C3.80013 15.5281 6.89387 13.7419 9.9037 14.5484L12.6721 15.2902C13.1527 15.419 13.6659 15.3108 14.0536 14.9989C14.7059 14.4743 15.5196 14.5819 16.048 15.0306C16.5763 14.5819 17.39 14.4743 18.0424 14.9989C18.43 15.3108 18.9432 15.419 19.4238 15.2902L22.1922 14.5484C25.2021 13.7419 28.2958 15.5281 29.1023 18.5379L30.3597 23.2307L21.769 25.5326C19.7993 26.0604 17.7747 24.8915 17.2469 22.9217L16.048 18.4474L14.8491 22.9217C14.3213 24.8915 12.2966 26.0604 10.3269 25.5326Z" fill="url(#paint0_linear_2002_101)"/>
<path fill-rule="evenodd" clip-rule="evenodd" d="M20.8322 0.72046L32.1482 0.720459V9.09354C32.1482 12.2096 29.6222 14.7356 26.5062 14.7356H22.4651C20.6746 14.7356 18.9904 15.5854 17.9267 17.0257L16.9321 18.3724C16.7658 19.0472 15.8434 19.2808 15.3918 18.6693L14.2215 17.0848C13.1578 15.6445 11.4736 14.7946 9.68307 14.7946H5.64204C2.52603 14.7946 0 12.2686 0 9.15258V0.779498H11.316C13.303 0.779498 15.0501 1.80664 16.0553 3.35892C17.0541 1.7737 18.8201 0.72046 20.8322 0.72046Z" fill="url(#paint1_linear_2002_101)"/>
<path d="M51.8473 5.05555H55.3064L61.5976 18.8452V21.1899H58.9511L57.0939 17.0345H50.0366L48.2026 21.1899H45.5561V18.8452L51.8473 5.05555ZM53.5885 9.11817L51.5455 13.7147H55.6314L53.5885 9.11817ZM65.9238 21.1899H62.604V9.23424H65.9238V21.1899ZM62.5344 6.77345C62.5344 6.2782 62.6969 5.86807 63.0219 5.54306C63.3624 5.21805 63.7802 5.05555 64.2755 5.05555C64.7707 5.05555 65.1809 5.21805 65.5059 5.54306C65.8309 5.86807 65.9934 6.2782 65.9934 6.77345C65.9934 7.26871 65.8309 7.68658 65.5059 8.02706C65.1809 8.35207 64.7707 8.51458 64.2755 8.51458C63.7802 8.51458 63.3624 8.35207 63.0219 8.02706C62.6969 7.68658 62.5344 7.26871 62.5344 6.77345ZM75.0831 9.23424H82.1869L82.5119 9.93069C82.9453 10.9057 83.1619 11.9504 83.1619 13.0647C83.1619 14.179 82.953 15.2314 82.5351 16.2219C82.1327 17.197 81.5679 18.0559 80.8404 18.7988C80.113 19.5262 79.2618 20.1066 78.2868 20.5399C77.3273 20.9578 76.2903 21.1745 75.176 21.1899C74.0617 21.1899 73.0093 20.981 72.0188 20.5631C71.0283 20.1453 70.1616 19.5726 69.4187 18.8452C68.6913 18.1178 68.1109 17.2666 67.6776 16.2916C67.2597 15.3166 67.0508 14.2719 67.0508 13.1576C67.0508 12.0432 67.252 10.9986 67.6544 10.0235C68.0722 9.04852 68.6449 8.19731 69.3723 7.4699C70.0997 6.72702 70.9509 6.13891 71.9259 5.70557C72.9164 5.27222 73.9688 5.05555 75.0831 5.05555V8.42172C73.7521 8.42172 72.6378 8.88602 71.7402 9.81461C70.8271 10.7277 70.3705 11.8421 70.3705 13.1576C70.3705 13.8076 70.4943 14.4189 70.7419 14.9915C70.9896 15.5642 71.3378 16.0749 71.7866 16.5237C72.2354 16.9726 72.7384 17.313 73.2956 17.5452C73.8682 17.7773 74.4718 17.8934 75.1064 17.8934C75.7873 17.8779 76.4141 17.7541 76.9868 17.522C77.5594 17.2898 78.0547 16.9493 78.4725 16.5005C78.9213 16.0517 79.2618 15.541 79.494 14.9683C79.7261 14.3957 79.8422 13.7844 79.8422 13.1344C79.8422 12.9486 79.8267 12.7552 79.7958 12.554H75.0831V9.23424ZM94.2436 16.5005H87.697C87.8208 16.7636 88.0143 17.0345 88.2774 17.313C88.85 17.8857 89.5465 18.172 90.3667 18.172C91.0013 18.1565 91.5739 17.9631 92.0846 17.5916L94.9633 19.4256C94.4061 20.0601 93.7329 20.5631 92.9436 20.9346C92.1698 21.2905 91.3186 21.4685 90.39 21.4685C89.5233 21.4685 88.703 21.306 87.9292 20.981C87.1708 20.656 86.5053 20.2149 85.9327 19.6578C85.36 19.0851 84.9035 18.4196 84.563 17.6613C84.238 16.9029 84.0755 16.0904 84.0755 15.2237C84.0755 14.357 84.238 13.5445 84.563 12.7861C84.888 12.0123 85.3291 11.3391 85.8863 10.7664C86.4434 10.1938 87.1012 9.74497 87.8595 9.41996C88.6179 9.07947 89.4381 8.90923 90.3203 8.90923C91.187 8.90923 91.9995 9.07174 92.7579 9.39675C93.5317 9.72175 94.1972 10.1706 94.7544 10.7432C95.327 11.3004 95.7758 11.9581 96.1008 12.7165C96.4413 13.4748 96.6116 14.2874 96.6116 15.1541C96.6116 15.6184 96.5651 16.0672 96.4723 16.5005H94.2436ZM90.3203 12.2754C89.5155 12.2754 88.8268 12.5617 88.2542 13.1344C87.9137 13.5058 87.6738 13.8927 87.5345 14.2951H93.1525C93.0132 13.8463 92.7656 13.4516 92.4097 13.1111C91.8215 12.554 91.1251 12.2754 90.3203 12.2754ZM106.688 15.6184V15.1541C106.688 14.7671 106.61 14.4034 106.455 14.063C106.301 13.707 106.084 13.3975 105.805 13.1344C105.542 12.8712 105.233 12.6623 104.877 12.5075C104.521 12.3528 104.142 12.2754 103.739 12.2754C103.352 12.2754 102.981 12.3528 102.625 12.5075C102.284 12.6468 101.983 12.848 101.72 13.1111C101.456 13.3588 101.24 13.6528 101.07 13.9933C100.915 14.3183 100.83 14.6743 100.814 15.0612V21.1899H97.4945V9.23424H100.814V10.1396C101.124 9.72175 101.549 9.41222 102.091 9.21103C102.648 9.00983 103.198 8.90923 103.739 8.90923C104.606 8.90923 105.418 9.07174 106.177 9.39675C106.935 9.72175 107.601 10.1706 108.173 10.7432C108.746 11.3004 109.195 11.9581 109.52 12.7165C109.845 13.4748 110.007 14.2874 110.007 15.1541V21.1899H106.688V20.7489V15.6184ZM111.006 15.2701C111.006 14.4034 111.169 13.5832 111.494 12.8093C111.819 12.0355 112.268 11.3623 112.84 10.7896C113.413 10.2015 114.078 9.74497 114.837 9.41996C115.595 9.07947 116.408 8.90923 117.274 8.90923C117.537 8.90923 117.816 8.93245 118.11 8.97888C118.404 9.02531 118.683 9.10269 118.946 9.21103C119.224 9.31936 119.472 9.47413 119.689 9.67532C119.905 9.86104 120.076 10.0932 120.199 10.3718V5.05555H123.519V21.1899H120.199V20.2846C119.89 20.7024 119.457 21.0042 118.899 21.1899C118.358 21.3757 117.816 21.4685 117.274 21.4685C116.408 21.4685 115.595 21.3138 114.837 21.0042C114.078 20.6792 113.413 20.2381 112.84 19.681C112.268 19.1238 111.819 18.4661 111.494 17.7077C111.169 16.9493 111.006 16.1368 111.006 15.2701ZM117.321 18.1488C117.708 18.1488 118.071 18.0791 118.412 17.9398C118.768 17.7851 119.077 17.5839 119.34 17.3363C119.604 17.0732 119.812 16.7791 119.967 16.4541C120.122 16.1136 120.215 15.7499 120.246 15.363V15.1076C120.215 14.7207 120.122 14.3647 119.967 14.0397C119.812 13.6992 119.604 13.4052 119.34 13.1576C119.077 12.8945 118.768 12.6933 118.412 12.554C118.071 12.3992 117.708 12.3218 117.321 12.3218C116.934 12.3218 116.562 12.3915 116.206 12.5308C115.866 12.6701 115.564 12.8635 115.301 13.1111C115.038 13.3588 114.821 13.6528 114.651 13.9933C114.496 14.3183 114.403 14.6665 114.372 15.038L114.349 15.2237L114.372 15.4094C114.403 15.7809 114.496 16.1368 114.651 16.4773C114.821 16.8023 115.038 17.0886 115.301 17.3363C115.564 17.5839 115.866 17.7851 116.206 17.9398C116.562 18.0791 116.934 18.1488 117.321 18.1488ZM124.402 15.1541C124.402 14.2874 124.565 13.4748 124.89 12.7165C125.215 11.9581 125.663 11.3004 126.236 10.7432C126.809 10.1706 127.474 9.72175 128.233 9.39675C128.991 9.07174 129.803 8.90923 130.67 8.90923C131.212 8.90923 131.753 9.00983 132.295 9.21103C132.852 9.41222 133.286 9.72175 133.595 10.1396V9.23424H136.915V21.1899H133.595V20.0524C133.471 20.331 133.301 20.5631 133.084 20.7489C132.868 20.9346 132.62 21.0816 132.342 21.1899C132.078 21.2983 131.8 21.3679 131.506 21.3989C131.212 21.4453 130.933 21.4685 130.67 21.4685C129.803 21.4685 128.991 21.306 128.233 20.981C127.474 20.6405 126.809 20.184 126.236 19.6113C125.663 19.0387 125.215 18.3732 124.89 17.6148C124.565 16.841 124.402 16.0207 124.402 15.1541ZM130.67 12.2754C130.283 12.2754 129.912 12.3528 129.556 12.5075C129.215 12.6468 128.913 12.8403 128.65 13.0879C128.387 13.3355 128.171 13.6296 128 13.9701C127.846 14.2951 127.768 14.7052 127.768 15.2005C127.768 15.6957 127.846 16.1136 128 16.4541C128.171 16.7791 128.387 17.0654 128.65 17.313C128.913 17.5607 129.215 17.7541 129.556 17.8934C129.912 18.0327 130.283 18.1024 130.67 18.1024C131.057 18.1024 131.421 18.0327 131.761 17.8934C132.117 17.7387 132.427 17.5375 132.69 17.2898C132.953 17.0267 133.162 16.7327 133.317 16.4077C133.471 16.0672 133.564 15.7035 133.595 15.3166V15.0612C133.564 14.6743 133.471 14.3183 133.317 13.9933C133.162 13.6528 132.953 13.3588 132.69 13.1111C132.427 12.848 132.117 12.6468 131.761 12.5075C131.421 12.3528 131.057 12.2754 130.67 12.2754Z" fill="#8793F3"/>
<path d="M141.225 6.09085C141.225 5.79041 141.298 5.51652 141.444 5.2692C141.591 5.02189 141.788 4.82495 142.035 4.67839C142.283 4.53183 142.556 4.45855 142.857 4.45855C143.117 4.45855 143.357 4.51443 143.577 4.62618C143.799 4.73793 143.982 4.8909 144.126 5.08509C144.271 5.27745 144.361 5.49546 144.396 5.73911H143.731C143.694 5.55041 143.592 5.39653 143.426 5.27745C143.259 5.15654 143.069 5.09608 142.857 5.09608C142.674 5.09608 142.507 5.14097 142.357 5.23073C142.207 5.3205 142.087 5.4405 141.997 5.59072C141.907 5.74094 141.862 5.90765 141.862 6.09085C141.862 6.27405 141.907 6.44076 141.997 6.59098C142.087 6.74121 142.207 6.8612 142.357 6.95097C142.507 7.04074 142.674 7.08562 142.857 7.08562C143.069 7.08562 143.249 7.02608 143.396 6.907C143.544 6.78609 143.637 6.63129 143.676 6.44259H144.341C144.306 6.68625 144.221 6.90517 144.085 7.09936C143.95 7.29172 143.776 7.44377 143.563 7.55553C143.352 7.66728 143.117 7.72315 142.857 7.72315C142.556 7.72315 142.283 7.64987 142.035 7.50331C141.788 7.35676 141.591 7.15982 141.444 6.9125C141.298 6.66518 141.225 6.3913 141.225 6.09085ZM142.829 8.99272C142.43 8.99272 142.055 8.91761 141.703 8.76739C141.353 8.61716 141.044 8.40923 140.777 8.14359C140.511 7.87612 140.302 7.56743 140.15 7.21752C140 6.86761 139.926 6.49206 139.928 6.09085C139.929 5.68965 140.005 5.31409 140.156 4.96418C140.308 4.61427 140.517 4.3065 140.782 4.04086C141.048 3.77339 141.356 3.56454 141.706 3.41432C142.055 3.26409 142.43 3.18898 142.829 3.18898C143.231 3.18898 143.606 3.26409 143.956 3.41432C144.308 3.56454 144.616 3.77339 144.879 4.04086C145.145 4.3065 145.353 4.61427 145.503 4.96418C145.653 5.31409 145.729 5.68965 145.731 6.09085C145.733 6.49206 145.659 6.86761 145.509 7.21752C145.358 7.56743 145.151 7.87612 144.885 8.14359C144.619 8.40923 144.311 8.61716 143.959 8.76739C143.607 8.91761 143.231 8.99272 142.829 8.99272ZM142.829 8.35519C143.143 8.35519 143.437 8.29657 143.712 8.17932C143.986 8.06207 144.227 7.89994 144.434 7.69292C144.641 7.48591 144.803 7.24592 144.921 6.97295C145.038 6.69816 145.096 6.40504 145.094 6.0936C145.092 5.78033 145.032 5.4863 144.915 5.2115C144.798 4.9367 144.636 4.69579 144.429 4.48878C144.222 4.28176 143.982 4.11963 143.709 4.00238C143.436 3.88514 143.143 3.82651 142.829 3.82651C142.518 3.82651 142.226 3.88514 141.953 4.00238C141.68 4.11963 141.44 4.28268 141.233 4.49153C141.026 4.69854 140.863 4.93945 140.744 5.21425C140.626 5.48721 140.567 5.78033 140.565 6.0936C140.563 6.40321 140.621 6.69541 140.738 6.97021C140.855 7.24317 141.018 7.48316 141.225 7.69018C141.433 7.89719 141.674 8.06024 141.947 8.17932C142.222 8.29657 142.516 8.35519 142.829 8.35519Z" fill="#ABABAB"/>
<defs>
<linearGradient id="paint0_linear_2002_101" x1="8.67907" y1="23.8861" x2="19.8207" y2="-6.97545" gradientUnits="userSpaceOnUse">
<stop stop-color="#8A98F3"/>
<stop offset="1" stop-color="#8793F3"/>
</linearGradient>
<linearGradient id="paint1_linear_2002_101" x1="4.23154" y1="-8.2851" x2="2.77318" y2="14.4813" gradientUnits="userSpaceOnUse">
<stop stop-color="#8793F3"/>
<stop offset="1" stop-color="#BBD8EF"/>
</linearGradient>
</defs>
</svg>
