<svg width="62" height="49" viewBox="0 0 62 49" fill="none" xmlns="http://www.w3.org/2000/svg">
<path fill-rule="evenodd" clip-rule="evenodd" d="M19.8758 48.2561L3.34131 43.8257L5.76149 34.7935C7.31372 29.0005 13.2682 25.5627 19.0612 27.1149L24.3896 28.5426C25.3145 28.7905 26.3022 28.5822 27.0484 27.9821C28.304 26.9722 29.8702 27.1794 30.8871 28.0431C31.904 27.1794 33.4701 26.9722 34.7257 27.9821C35.4719 28.5823 36.4596 28.7905 37.3846 28.5426L42.7129 27.1149C48.5059 25.5627 54.4604 29.0005 56.0127 34.7935L58.4328 43.8257L41.8984 48.2561C38.1073 49.2719 34.2105 47.0221 33.1946 43.231L30.8871 34.6191L28.5795 43.231C27.5637 47.0221 23.6669 49.2719 19.8758 48.2561Z" fill="url(#paint0_linear_2002_673)"/>
<path fill-rule="evenodd" clip-rule="evenodd" d="M40.0954 0.5H61.8752V16.6156C61.8752 22.6129 57.0134 27.4748 51.016 27.4748H43.2383C39.7921 27.4748 36.5505 29.1105 34.5032 31.8826L32.5891 34.4743C32.2693 35.7733 30.4938 36.2231 29.6245 35.046L27.372 31.9962C25.3247 29.2241 22.0831 27.5884 18.6369 27.5884H10.8592C4.86181 27.5884 0 22.7266 0 16.7292V0.613643H21.7798C25.6041 0.613643 28.9666 2.59051 30.9013 5.5781C32.8237 2.5271 36.2228 0.500002 40.0954 0.5Z" fill="url(#paint1_linear_2002_673)"/>
<defs>
<linearGradient id="paint0_linear_2002_673" x1="16.7042" y1="45.0871" x2="38.1484" y2="-14.3118" gradientUnits="userSpaceOnUse">
<stop stop-color="#8A98F3"/>
<stop offset="1" stop-color="#8793F3"/>
</linearGradient>
<linearGradient id="paint1_linear_2002_673" x1="8.14439" y1="-16.8329" x2="5.33752" y2="26.9853" gradientUnits="userSpaceOnUse">
<stop stop-color="#8793F3"/>
<stop offset="1" stop-color="#BBD8EF"/>
</linearGradient>
</defs>
</svg>
