<svg width="32" height="33" viewBox="0 0 32 33" fill="none" xmlns="http://www.w3.org/2000/svg">
<g clip-path="url(#clip0_2002_134)">
<path fill-rule="evenodd" clip-rule="evenodd" d="M16 32.7646C24.8366 32.7646 32 25.6012 32 16.7646C32 7.92809 24.8366 0.764648 16 0.764648C7.16344 0.764648 0 7.92809 0 16.7646C0 25.6012 7.16344 32.7646 16 32.7646ZM12.0298 11.8424C12.3269 11.5456 12.4939 11.1429 12.4941 10.723C12.4943 10.3031 12.3277 9.90026 12.0309 9.60318C11.7341 9.3061 11.3315 9.13909 10.9116 9.13888C10.4917 9.13867 10.0888 9.30528 9.79176 9.60206C9.49468 9.89885 9.32766 10.3015 9.32745 10.7214C9.32724 11.1413 9.49386 11.5442 9.79064 11.8412C10.0874 12.1383 10.4901 12.3053 10.91 12.3055C11.3299 12.3058 11.7327 12.1391 12.0298 11.8424ZM9.37495 13.478H12.5416V23.3897H9.37495V13.478ZM14.3941 13.478H17.545L17.5133 14.808C18.8275 12.4093 24.4166 12.2272 24.4166 17.1117V23.3897H21.2895V18.1884C21.2895 15.0218 17.5133 15.2909 17.5133 18.1884V23.3897H14.3941V13.478Z" fill="#0E1C36"/>
</g>
<defs>
<clipPath id="clip0_2002_134">
<rect width="32" height="32" fill="white" transform="translate(0 0.764648)"/>
</clipPath>
</defs>
</svg>
