<svg width="32" height="33" viewBox="0 0 32 33" fill="none" xmlns="http://www.w3.org/2000/svg">
<path fill-rule="evenodd" clip-rule="evenodd" d="M11.3799 16.7646C11.3799 19.3201 13.4423 21.3825 15.9977 21.3825C18.5532 21.3825 20.6156 19.3201 20.6156 16.7646C20.6156 14.2092 18.5532 12.1468 15.9977 12.1468C13.4423 12.1468 11.3799 14.2092 11.3799 16.7646ZM12.9965 16.7646C12.9965 15.112 14.3451 13.7634 15.9977 13.7634C17.6504 13.7634 18.999 15.112 18.999 16.7646C18.999 18.4173 17.6504 19.7659 15.9977 19.7659C14.3451 19.7659 12.9965 18.4173 12.9965 16.7646Z" fill="#EC279D"/>
<path d="M19.7263 11.9577C19.7263 12.5543 20.2081 13.0361 20.8047 13.0361C20.9464 13.0363 21.0867 13.0085 21.2177 12.9544C21.3486 12.9003 21.4676 12.8208 21.5677 12.7206C21.6679 12.6205 21.7474 12.5015 21.8015 12.3706C21.8556 12.2396 21.8834 12.0993 21.8832 11.9577C21.8832 11.361 21.4014 10.8792 20.8047 10.8792C20.2081 10.8792 19.7263 11.361 19.7263 11.9577Z" fill="#EC279D"/>
<path fill-rule="evenodd" clip-rule="evenodd" d="M16 0.764648C7.16344 0.764648 0 7.92809 0 16.7646C0 25.6012 7.16344 32.7646 16 32.7646C24.8366 32.7646 32 25.6012 32 16.7646C32 7.92809 24.8366 0.764648 16 0.764648ZM24.9997 16.31C24.9995 16.4614 24.9993 16.6129 24.9993 16.7646C24.9993 16.9343 24.9996 17.1037 24.9998 17.273C25.0014 18.3439 25.003 19.4084 24.9408 20.4797C24.871 21.9206 24.5445 23.1972 23.4886 24.2532C22.4348 25.3069 21.156 25.6356 19.715 25.7054C18.6258 25.7667 17.5436 25.7655 16.4546 25.7643C16.3032 25.7641 16.1517 25.764 16 25.764C15.8486 25.764 15.6974 25.7641 15.5462 25.7643C14.4587 25.7655 13.3762 25.7667 12.285 25.7054C10.844 25.6356 9.5674 25.3092 8.51144 24.2532C7.45773 23.1995 7.12901 21.9206 7.05921 20.4797C6.99793 19.3904 6.99913 18.3064 7.00033 17.2185C7.0005 17.0673 7.00067 16.916 7.00067 16.7646C7.00067 16.6133 7.0005 16.462 7.00033 16.3108C6.99913 15.2233 6.99793 14.1408 7.05921 13.0496C7.12901 11.6087 7.45548 10.3321 8.51144 9.27609C9.56515 8.22238 10.844 7.89365 12.285 7.82386C13.3742 7.76258 14.4564 7.76378 15.5454 7.76498C15.6968 7.76515 15.8483 7.76532 16 7.76532C16.1514 7.76532 16.3026 7.76515 16.4538 7.76498C17.5413 7.76378 18.6238 7.76258 19.715 7.82386C21.156 7.89365 22.4326 8.22013 23.4886 9.27609C24.5423 10.3298 24.871 11.6087 24.9408 13.0496C25.0021 14.1388 25.0009 15.221 24.9997 16.31Z" fill="#EC279D"/>
</svg>
