<svg width="32" height="33" viewBox="0 0 32 33" fill="none" xmlns="http://www.w3.org/2000/svg">
<g clip-path="url(#clip0_2002_132)">
<path d="M16 0.764648C7.164 0.764648 0 7.92865 0 16.7646C0 25.6006 7.164 32.7646 16 32.7646C24.836 32.7646 32 25.6006 32 16.7646C32 7.92865 24.836 0.764648 16 0.764648ZM23.8587 11.726L21.232 24.0993C21.0387 24.9766 20.516 25.19 19.7867 24.7766L15.7867 21.83L13.8587 23.6887C13.7642 23.8109 13.643 23.91 13.5043 23.9781C13.3656 24.0463 13.2132 24.0819 13.0587 24.082H13.052L13.336 20.01L20.7493 13.314C21.0693 13.03 20.6773 12.8686 20.252 13.1526L11.0933 18.9206L7.14667 17.6886C6.29333 17.418 6.26933 16.8353 7.32667 16.4166L22.748 10.4726C23.4653 10.2113 24.0893 10.6433 23.8573 11.7273L23.8587 11.726Z" fill="#3B82F6"/>
</g>
<defs>
<clipPath id="clip0_2002_132">
<rect width="32" height="32" fill="white" transform="translate(0 0.764648)"/>
</clipPath>
</defs>
</svg>
